# xmcd
# Track frame offsets:
# 150
# 11857
# 23711
# 40042
# 53321
# 66019
# 82040
# 100118
# 114506
# 123996
# 137779
# 151249
# 162078
# 174238
# 185739
# 196802
# 211633
# 229693
# 242932
# 258193
#
# Disc length: 3674 seconds
# Revision: 0
# Processed by: cddbd v1.5.2PL0 Copyright (c) Steve Scherf et al.
# Submitted via: VisiTrax 2.11.2.271 - For more info visit www.synapsa.com
#
DISCID=f90e5814
DTITLE=Various (1950's-2000's) Country Artists - Always On My Mind: The Roman
DTITLE=tic Side Of Country: CD4 of 5: *ReMastered Tracks
DYEAR=2006
DGENRE=Country
TTITLE0=Glen Campbell and Bobbie Gentry - All I Have To Do Is Dream*
TTITLE1=Tammy Wynette and David Houston - Somethin' Stupid*
TTITLE2=Merle Haggard and Janie Fricke - A Place To Fall Apart*
TTITLE3=Conway Twitty and Loretta Lynn - Feelin's*
TTITLE4=Dolly Parton and Porter Wagoner - Please Don't Stop Loving Me*
TTITLE5=Kenny Rogers and Dottie West - Just The Way You Are*
TTITLE6=Eddie Rabitt and Crystal Gayle - You And I*
TTITLE7=Kenny Rogers and Dottie West - (Hey Wont You Play) Another Somebody Don
TTITLE7=e Somebody Wrong Song*
TTITLE8=Glen Campbell and Bobbie Gentry - Let It Be Me*
TTITLE9=Jim Ed Brown and Helen Cornelius - You Don't Bring Me Flowers*
TTITLE10=Bobby Bare and Skeeter Davis - Your Husband, My Wife*
TTITLE11=Tammy Wynette and George Jones - Never Ending Song Of Love*
TTITLE12=George Jones and Melba Montgomery - We Must Have Been Out Of Our Minds*
TTITLE13=Willie Nelson and Patsy Cline - Just Out Of Reach*
TTITLE14=Conway Twitty and Loretta Lynn - Lead Me On*
TTITLE15=Johnny Duncan and Janie Fricke - He's Out Of My Life*
TTITLE16=Jo Dee Messina and Tim McGraw - Bring On The Rain*
TTITLE17=Tanya Tucker and Glen Campbell - Dream Lover*
TTITLE18=Reba McEntire and Vince Gill - The Heart Wont Lie*
TTITLE19=Kenny Rogers and Sheena Easton - We've Got Tonight*
EXTD=Compilation: Readers Digest: 2006
EXTT0=
EXTT1=
EXTT2=
EXTT3=
EXTT4=
EXTT5=
EXTT6=
EXTT7=
EXTT8=
EXTT9=
EXTT10=
EXTT11=
EXTT12=
EXTT13=
EXTT14=
EXTT15=
EXTT16=
EXTT17=
EXTT18=
EXTT19=
PLAYORDER=
